<?xml version="1.0" standalone="no"?>
<!DOCTYPE svg PUBLIC "-//W3C//DTD SVG 20010904//EN"
 "http://www.w3.org/TR/2001/REC-SVG-20010904/DTD/svg10.dtd">
<svg version="1.0" xmlns="http://www.w3.org/2000/svg"
 width="394.000000pt" height="186.000000pt" viewBox="0 0 394.000000 186.000000"
 preserveAspectRatio="xMidYMid meet">
<metadata>
Created by potrace 1.16, written by Peter Selinger 2001-2019
</metadata>
<g transform="translate(0.000000,186.000000) scale(0.100000,-0.100000)"
fill="#000000" stroke="none">
<path d="M701 1783 l-644 -3 6 -856 c4 -471 8 -858 10 -860 6 -6 3795 10 3800
16 3 3 3 389 0 858 l-6 852 -1261 -2 c-694 -2 -1551 -4 -1905 -5z m1505 -439
c126 -32 224 -115 264 -222 19 -50 21 -73 18 -192 -3 -121 -6 -141 -30 -192
-37 -79 -99 -142 -177 -181 l-66 -32 -442 -3 -443 -3 0 56 c0 51 2 55 23 55
13 0 31 6 41 13 17 12 18 25 11 147 l-7 133 -86 -202 -85 -201 -56 0 -56 0
-102 203 -102 202 0 -123 c-1 -118 0 -124 24 -147 13 -14 33 -25 45 -25 18 0
20 -6 20 -55 l0 -55 -155 0 -155 0 0 53 c0 49 2 53 33 67 50 23 56 55 56 317
1 225 0 233 -20 252 -12 11 -35 23 -50 26 -28 6 -29 9 -29 61 l0 54 140 0 140
0 121 -242 121 -242 44 104 c125 290 167 379 182 383 10 3 175 5 369 5 282 1
362 -2 409 -14z m815 1 c55 -20 106 -69 119 -115 13 -47 13 -185 -1 -235 -15
-52 -91 -129 -144 -144 -22 -7 -77 -15 -122 -18 l-83 -6 0 -73 c0 -84 18 -114
69 -114 54 0 61 -8 61 -66 l0 -54 -210 0 -210 0 0 54 c0 56 8 66 51 66 10 0
26 11 35 25 15 22 16 56 12 284 -3 185 -8 264 -16 274 -7 8 -28 18 -47 21 -35
7 -35 7 -35 61 l0 55 239 0 c189 0 247 -3 282 -15z m439 -400 l0 -55 -140 0
-140 0 0 55 0 55 140 0 140 0 0 -55z m-2810 -10 l0 -55 -140 0 -140 0 0 55 0
55 140 0 140 0 0 -55z"/>
<path d="M1599 1219 c-18 -18 -20 -28 -14 -112 3 -51 10 -171 15 -267 10 -162
12 -176 33 -194 28 -23 104 -17 125 10 19 25 12 545 -8 569 -20 24 -125 20
-151 -6z"/>
<path d="M1987 1220 l-27 -21 0 -255 0 -255 25 -24 c30 -31 65 -32 130 -1 88
40 146 118 163 217 20 115 -58 278 -158 329 -61 31 -102 34 -133 10z"/>
<path d="M2802 1228 c-8 -8 -12 -55 -12 -145 0 -123 1 -133 19 -133 50 0 131
88 131 143 0 44 -43 112 -84 131 -41 19 -39 19 -54 4z"/>
</g>
</svg>
